<?xml version="1.0" encoding="UTF-8" standalone="no" ?>
<!DOCTYPE svg PUBLIC "-//W3C//DTD SVG 1.1//EN" "http://www.w3.org/Graphics/SVG/1.1/DTD/svg11.dtd">
<svg xmlns="http://www.w3.org/2000/svg" xmlns:xlink="http://www.w3.org/1999/xlink" version="1.1" width="1080" height="1080" viewBox="0 0 1080 1080" xml:space="preserve">
<desc>Created with Fabric.js 5.2.4</desc>
<defs>
</defs>
<rect x="0" y="0" width="100%" height="100%" fill="transparent"></rect>
<g transform="matrix(1 0 0 1 540 540)" id="a995b975-5cad-4fba-b998-85ec71c6b8cd"  >
<rect style="stroke: none; stroke-width: 1; stroke-dasharray: none; stroke-linecap: butt; stroke-dashoffset: 0; stroke-linejoin: miter; stroke-miterlimit: 4; fill: rgb(255,255,255); fill-rule: nonzero; opacity: 1; visibility: hidden;" vector-effect="non-scaling-stroke"  x="-540" y="-540" rx="0" ry="0" width="1080" height="1080" />
</g>
<g transform="matrix(1 0 0 1 540 540)" id="a0d95c6e-ef70-4b41-b663-ec8ba22c7b45"  >
</g>
<g transform="matrix(NaN NaN NaN NaN 0 0)"  >
<g style=""   >
</g>
</g>
<g transform="matrix(NaN NaN NaN NaN 0 0)"  >
<g style=""   >
</g>
</g>
<g transform="matrix(54.38 0 0 54.38 540 540)" id="1b1e802c-1076-4587-93bd-599b3962f970"  >
<path style="stroke: rgb(255,255,255); stroke-opacity: 0; stroke-width: 0; stroke-dasharray: none; stroke-linecap: butt; stroke-dashoffset: 0; stroke-linejoin: miter; stroke-miterlimit: 4; fill: rgb(255,255,255); fill-rule: nonzero; opacity: 1;" vector-effect="non-scaling-stroke"  transform=" translate(-8, -7.8)" d="M 8 0 C 3.58 0 0 3.58 0 8 C 0 11.54 2.29 14.53 5.47 15.59 C 5.87 15.66 6.02 15.42 6.02 15.21 C 6.02 15.02 6.01 14.39 6.01 13.72 C 4 14.09 3.48 13.23 3.32 12.78 C 3.23 12.55 2.84 11.84 2.5 11.65 C 2.22 11.5 1.82 11.13 2.49 11.12 C 3.12 11.11 3.57 11.7 3.72 11.94 C 4.44 13.15 5.59 12.81 6.05 12.6 C 6.12 12.08 6.33 11.73 6.56 11.53 C 4.78 11.33 2.92 10.64 2.92 7.58 C 2.92 6.71 3.23 5.99 3.74 5.43 C 3.66 5.23 3.38 4.41 3.82 3.31 C 3.82 3.31 4.49 3.1 6.02 4.13 C 6.66 3.95 7.34 3.86 8.02 3.86 C 8.7 3.86 9.38 3.95 10.02 4.13 C 11.55 3.09 12.22 3.31 12.22 3.31 C 12.66 4.41 12.38 5.23 12.3 5.43 C 12.81 5.99 13.12 6.7 13.12 7.58 C 13.12 10.65 11.25 11.33 9.47 11.53 C 9.76 11.78 10.01 12.26 10.01 13.01 C 10.01 14.08 10 14.94 10 15.21 C 10 15.42 10.15 15.67 10.55 15.59 C 13.71 14.53 16 11.53 16 8 C 16 3.58 12.42 0 8 0 Z" stroke-linecap="round" />
</g>
</svg>