<?xml version="1.0" encoding="UTF-8" standalone="no" ?>
<!DOCTYPE svg PUBLIC "-//W3C//DTD SVG 1.1//EN" "http://www.w3.org/Graphics/SVG/1.1/DTD/svg11.dtd">
<svg xmlns="http://www.w3.org/2000/svg" xmlns:xlink="http://www.w3.org/1999/xlink" version="1.1" width="1080" height="1080" viewBox="0 0 1080 1080" xml:space="preserve">
<desc>Created with Fabric.js 5.2.4</desc>
<defs>
</defs>
<g transform="matrix(1 0 0 1 540 540)" id="a995b975-5cad-4fba-b998-85ec71c6b8cd"  >
<rect style="stroke: none; stroke-width: 1; stroke-dasharray: none; stroke-linecap: butt; stroke-dashoffset: 0; stroke-linejoin: miter; stroke-miterlimit: 4; fill: rgb(255,255,255); fill-rule: nonzero; opacity: 1; visibility: hidden;" vector-effect="non-scaling-stroke"  x="-540" y="-540" rx="0" ry="0" width="1080" height="1080" />
</g>
<g transform="matrix(1 0 0 1 540 540)" id="a0d95c6e-ef70-4b41-b663-ec8ba22c7b45"  >
</g>
<g transform="matrix(1 0 0 1 540 540)"  >
<g style="" vector-effect="non-scaling-stroke"   >
		<g transform="matrix(2.58 0 0 2.58 -294.08 128.24)" id="XMLID_802_"  >
<path style="stroke: none; stroke-width: 1; stroke-dasharray: none; stroke-linecap: butt; stroke-dashoffset: 0; stroke-linejoin: miter; stroke-miterlimit: 4; fill: rgb(255,255,255); fill-rule: nonzero; opacity: 1;" vector-effect="non-scaling-stroke"  transform=" translate(-41.04, -204.69)" d="M 72.16 99.73 L 9.927 99.73 C 7.164999999999999 99.73 4.927 101.96900000000001 4.927 104.73 L 4.927 304.658 C 4.927 307.42 7.164999999999999 309.658 9.927 309.658 L 72.16 309.658 C 74.922 309.658 77.16 307.42 77.16 304.658 L 77.16 104.73 C 77.16 101.969 74.922 99.73 72.16 99.73 z" stroke-linecap="round" />
</g>
		<g transform="matrix(2.58 0 0 2.58 -294.07 -293.24)" id="XMLID_803_"  >
<path style="stroke: none; stroke-width: 1; stroke-dasharray: none; stroke-linecap: butt; stroke-dashoffset: 0; stroke-linejoin: miter; stroke-miterlimit: 4; fill: rgb(255,255,255); fill-rule: nonzero; opacity: 1;" vector-effect="non-scaling-stroke"  transform=" translate(-41.05, -41.37)" d="M 41.066 0.341 C 18.422 0.341 0 18.743 0 41.362 C 0 63.991 18.422 82.4 41.066 82.4 C 63.69200000000001 82.4 82.099 63.99000000000001 82.099 41.36200000000001 C 82.1 18.743 63.692 0.341 41.066 0.341 z" stroke-linecap="round" />
</g>
		<g transform="matrix(2.58 0 0 2.58 137 121.83)" id="XMLID_804_"  >
<path style="stroke: none; stroke-width: 1; stroke-dasharray: none; stroke-linecap: butt; stroke-dashoffset: 0; stroke-linejoin: miter; stroke-miterlimit: 4; fill: rgb(255,255,255); fill-rule: nonzero; opacity: 1;" vector-effect="non-scaling-stroke"  transform=" translate(-208.09, -202.21)" d="M 230.454 94.761 C 205.459 94.761 186.982 105.506 175.775 117.715 L 175.775 104.73 C 175.775 101.96900000000001 173.537 99.73 170.775 99.73 L 111.17600000000002 99.73 C 108.41400000000002 99.73 106.17600000000002 101.96900000000001 106.17600000000002 104.73 L 106.17600000000002 304.658 C 106.17600000000002 307.42 108.41400000000002 309.658 111.17600000000002 309.658 L 173.27300000000002 309.658 C 176.03500000000003 309.658 178.27300000000002 307.42 178.27300000000002 304.658 L 178.27300000000002 205.74 C 178.27300000000002 172.407 187.32700000000003 159.421 210.56300000000002 159.421 C 235.86900000000003 159.421 237.88000000000002 180.239 237.88000000000002 207.45499999999998 L 237.88000000000002 304.659 C 237.88000000000002 307.421 240.11800000000002 309.659 242.88000000000002 309.659 L 305 309.659 C 307.762 309.659 310 307.421 310 304.659 L 310 194.995 C 310 145.43 300.549 94.761 230.454 94.761 z" stroke-linecap="round" />
</g>
</g>
</g>
</svg>